<svg width="24" height="28" viewBox="0 0 24 28" fill="none" xmlns="http://www.w3.org/2000/svg">
<path d="M12.6998 5.48245C12.6088 5.48344 12.5186 5.4665 12.4342 5.4326C12.3498 5.39871 12.2729 5.34852 12.2079 5.2849C12.1429 5.22129 12.091 5.14549 12.0553 5.06184C12.0196 4.97819 12.0008 4.88833 11.9998 4.79739C11.9998 2.14672 14.195 6.33709e-05 16.8979 6.33709e-05C16.9889 -0.00116956 17.0793 0.0155994 17.1638 0.0494061C17.2483 0.0832128 17.3253 0.133391 17.3903 0.197054C17.4554 0.260718 17.5072 0.336612 17.5428 0.420373C17.5785 0.504135 17.5972 0.594111 17.5979 0.685128C17.5979 3.33579 15.4046 5.48245 12.6998 5.48245Z" fill="black"/>
<path d="M12.6998 5.48245C12.6088 5.48344 12.5186 5.4665 12.4342 5.4326C12.3498 5.39871 12.2729 5.34852 12.2079 5.2849C12.1429 5.22129 12.091 5.14549 12.0553 5.06184C12.0196 4.97819 12.0008 4.88833 11.9998 4.79739C11.9998 2.14672 14.195 6.33709e-05 16.8979 6.33709e-05C16.9889 -0.00116956 17.0793 0.0155994 17.1638 0.0494061C17.2483 0.0832128 17.3253 0.133391 17.3903 0.197054C17.4554 0.260718 17.5072 0.336612 17.5428 0.420373C17.5785 0.504135 17.5972 0.594111 17.5979 0.685128C17.5979 3.33579 15.4046 5.48245 12.6998 5.48245ZM22.9198 19.9136C23.1904 20.1115 23.2782 20.4736 23.1251 20.7686C20.6611 25.5957 18.6955 28 16.8998 28C16.0635 28 15.2422 27.7349 14.4414 27.2197C13.8666 26.8507 13.201 26.6478 12.5182 26.6333C11.8353 26.6188 11.1617 26.7933 10.5718 27.1376C9.60112 27.7069 8.67712 28 7.79979 28C5.15846 28 0.799805 20.035 0.799805 15.6651C0.799805 10.9984 3.29927 7.44058 7.09979 7.44058C8.88805 7.44058 10.4318 7.69818 11.7291 8.22271C12.2779 8.44298 12.8995 8.42804 13.4352 8.17604C14.488 7.67951 15.8768 7.44058 17.5979 7.44058C19.7016 7.44058 21.5366 8.46724 23.0598 10.4552C23.1148 10.5269 23.155 10.6089 23.1778 10.6964C23.2006 10.7839 23.2057 10.8751 23.1926 10.9646C23.1796 11.054 23.1487 11.14 23.1018 11.2173C23.0549 11.2946 22.993 11.3617 22.9198 11.4147C21.2192 12.6654 20.3998 14.0672 20.3998 15.6651C20.3998 17.2611 21.2192 18.6648 22.9198 19.9136Z" fill="black"/>
<path d="M22.9198 19.9136C23.1904 20.1115 23.2782 20.4736 23.1251 20.7686C20.6611 25.5957 18.6955 28 16.8998 28C16.0635 28 15.2422 27.7349 14.4414 27.2197C13.8666 26.8507 13.201 26.6478 12.5182 26.6333C11.8353 26.6188 11.1617 26.7933 10.5718 27.1376C9.60112 27.7069 8.67712 28 7.79979 28C5.15846 28 0.799805 20.035 0.799805 15.6651C0.799805 10.9984 3.29927 7.44058 7.09979 7.44058C8.88805 7.44058 10.4318 7.69818 11.7291 8.22271C12.2779 8.44298 12.8995 8.42804 13.4352 8.17604C14.488 7.67951 15.8768 7.44058 17.5979 7.44058C19.7016 7.44058 21.5366 8.46724 23.0598 10.4552C23.1148 10.5269 23.155 10.6089 23.1778 10.6964C23.2006 10.7839 23.2057 10.8751 23.1926 10.9646C23.1796 11.054 23.1487 11.14 23.1018 11.2173C23.0549 11.2946 22.993 11.3617 22.9198 11.4147C21.2192 12.6654 20.3998 14.0672 20.3998 15.6651C20.3998 17.2611 21.2192 18.6648 22.9198 19.9136Z" fill="black"/>
</svg>
