<svg width="30" height="30" viewBox="0 0 30 30" fill="none" xmlns="http://www.w3.org/2000/svg">
<g id="vuesax/linear/gallery">
<g id="vuesax/linear/gallery_2">
<g id="gallery">
<path id="Vector" d="M11.25 27.5H18.75C25 27.5 27.5 25 27.5 18.75V11.25C27.5 5 25 2.5 18.75 2.5H11.25C5 2.5 2.5 5 2.5 11.25V18.75C2.5 25 5 27.5 11.25 27.5Z" stroke="#D22F19" stroke-width="1.875" stroke-linecap="round" stroke-linejoin="round"/>
<path id="Vector_2" d="M11.25 12.5C12.6307 12.5 13.75 11.3807 13.75 10C13.75 8.61929 12.6307 7.5 11.25 7.5C9.86929 7.5 8.75 8.61929 8.75 10C8.75 11.3807 9.86929 12.5 11.25 12.5Z" stroke="#D22F19" stroke-width="1.875" stroke-linecap="round" stroke-linejoin="round"/>
<path id="Vector_3" d="M3.3374 23.6877L9.4999 19.5502C10.4874 18.8877 11.9124 18.9627 12.7999 19.7252L13.2124 20.0877C14.1874 20.9252 15.7624 20.9252 16.7374 20.0877L21.9374 15.6252C22.9124 14.7877 24.4874 14.7877 25.4624 15.6252L27.4999 17.3752" stroke="#D22F19" stroke-width="1.875" stroke-linecap="round" stroke-linejoin="round"/>
</g>
</g>
</g>
</svg>
