<svg width="16" height="15" viewBox="0 0 16 15" fill="none" xmlns="http://www.w3.org/2000/svg">
<g opacity="0.8">
<path d="M8.1281 4.54701C7.74452 4.54701 7.36469 4.62256 7.0103 4.76935C6.65592 4.91614 6.33392 5.13129 6.06268 5.40253C5.79145 5.67376 5.57629 5.99576 5.4295 6.35015C5.28271 6.70453 5.20716 7.08436 5.20716 7.46794C5.20716 7.85153 5.28271 8.23135 5.4295 8.58574C5.57629 8.94012 5.79145 9.26213 6.06268 9.53336C6.33392 9.80459 6.65592 10.0197 7.0103 10.1665C7.36469 10.3133 7.74452 10.3889 8.1281 10.3889C8.90278 10.3889 9.64573 10.0811 10.1935 9.53336C10.7413 8.98558 11.049 8.24262 11.049 7.46794C11.049 6.69326 10.7413 5.95031 10.1935 5.40253C9.64573 4.85475 8.90278 4.54701 8.1281 4.54701ZM6.10702 7.46794C6.10702 6.93192 6.31995 6.41785 6.69898 6.03882C7.07801 5.6598 7.59208 5.44686 8.1281 5.44686C8.66412 5.44686 9.17819 5.6598 9.55722 6.03882C9.93624 6.41785 10.1492 6.93192 10.1492 7.46794C10.1492 8.00397 9.93624 8.51804 9.55722 8.89706C9.17819 9.27609 8.66412 9.48902 8.1281 9.48902C7.59208 9.48902 7.07801 9.27609 6.69898 8.89706C6.31995 8.51804 6.10702 8.00397 6.10702 7.46794Z" fill="#FECB89"/>
<path d="M9.74424 1.47759C9.27002 -0.133155 6.98618 -0.133155 6.51195 1.47759L6.42737 1.76464C6.39425 1.87708 6.33639 1.98069 6.25803 2.06786C6.17967 2.15503 6.08279 2.22356 5.97451 2.26843C5.86622 2.3133 5.74926 2.33337 5.63221 2.32716C5.51516 2.32096 5.40098 2.28864 5.29805 2.23257L5.03529 2.08859C3.55952 1.28592 1.94608 2.90027 2.74965 4.37513L2.89273 4.63789C2.94879 4.74083 2.98111 4.85501 2.98732 4.97206C2.99352 5.08911 2.97346 5.20606 2.92859 5.31435C2.88372 5.42264 2.81519 5.51951 2.72802 5.59787C2.64084 5.67623 2.53724 5.73409 2.4248 5.76721L2.13775 5.8518C0.527001 6.32602 0.527001 8.60986 2.13775 9.08409L2.4248 9.16868C2.53724 9.20179 2.64084 9.25965 2.72802 9.33801C2.81519 9.41637 2.88372 9.51325 2.92859 9.62154C2.97346 9.72982 2.99352 9.84678 2.98732 9.96383C2.98111 10.0809 2.94879 10.1951 2.89273 10.298L2.74875 10.5608C1.94608 12.0365 3.55952 13.6509 5.03529 12.8464L5.29805 12.7033C5.40098 12.6472 5.51516 12.6149 5.63221 12.6087C5.74926 12.6025 5.86622 12.6226 5.97451 12.6675C6.08279 12.7123 6.17967 12.7809 6.25803 12.868C6.33639 12.9552 6.39425 13.0588 6.42737 13.1712L6.51195 13.4583C6.98618 15.069 9.27002 15.069 9.74424 13.4583L9.82883 13.1712C9.86195 13.0588 9.91981 12.9552 9.99817 12.868C10.0765 12.7809 10.1734 12.7123 10.2817 12.6675C10.39 12.6226 10.5069 12.6025 10.624 12.6087C10.741 12.6149 10.8552 12.6472 10.9582 12.7033L11.2209 12.8473C12.6967 13.6509 14.311 12.0356 13.5065 10.5608L13.3635 10.298C13.3074 10.1951 13.2751 10.0809 13.2689 9.96383C13.2627 9.84678 13.2827 9.72982 13.3276 9.62154C13.3725 9.51325 13.441 9.41637 13.5282 9.33801C13.6154 9.25965 13.719 9.20179 13.8314 9.16868L14.1185 9.08409C15.7292 8.60986 15.7292 6.32602 14.1185 5.8518L13.8314 5.76721C13.719 5.73409 13.6154 5.67623 13.5282 5.59787C13.441 5.51951 13.3725 5.42264 13.3276 5.31435C13.2827 5.20606 13.2627 5.08911 13.2689 4.97206C13.2751 4.85501 13.3074 4.74083 13.3635 4.63789L13.5074 4.37513C14.311 2.89937 12.6958 1.28592 11.2209 2.08949L10.9582 2.23257C10.8552 2.28864 10.741 2.32096 10.624 2.32716C10.5069 2.33337 10.39 2.3133 10.2817 2.26843C10.1734 2.22356 10.0765 2.15503 9.99817 2.06786C9.91981 1.98069 9.86195 1.87708 9.82883 1.76464L9.74424 1.47759ZM7.37492 1.73225C7.59628 0.980869 8.65992 0.980869 8.88128 1.73225L8.96587 2.0193C9.03697 2.26054 9.16117 2.48281 9.32934 2.66981C9.49752 2.85681 9.70541 3.00381 9.93778 3.10002C10.1702 3.19623 10.4211 3.23921 10.6723 3.22582C10.9234 3.21244 11.1684 3.14301 11.3892 3.02265L11.651 2.87867C12.3385 2.50523 13.0908 3.25661 12.7165 3.945L12.5734 4.20776C12.4532 4.42861 12.384 4.67355 12.3707 4.92463C12.3575 5.17572 12.4006 5.42659 12.4969 5.65885C12.5932 5.89112 12.7402 6.0989 12.9272 6.26697C13.1142 6.43504 13.3364 6.55914 13.5776 6.63018L13.8638 6.71476C14.6152 6.93613 14.6152 7.99976 13.8638 8.22112L13.5767 8.30571C13.3355 8.37682 13.1132 8.50101 12.9262 8.66919C12.7392 8.83736 12.5922 9.04525 12.496 9.27763C12.3998 9.51 12.3568 9.76095 12.3702 10.0121C12.3836 10.2632 12.453 10.5082 12.5734 10.729L12.7174 10.9909C13.0908 11.6784 12.3394 12.4307 11.651 12.0563L11.3892 11.9132C11.1683 11.7929 10.9233 11.7235 10.6721 11.7102C10.4209 11.6968 10.1699 11.7399 9.93752 11.8362C9.70513 11.9325 9.49725 12.0796 9.32912 12.2667C9.16099 12.4538 9.03687 12.6762 8.96587 12.9175L8.88128 13.2036C8.65992 13.955 7.59628 13.955 7.37492 13.2036L7.29033 12.9166C7.21919 12.6755 7.09502 12.4533 6.92691 12.2664C6.75879 12.0795 6.551 11.9326 6.31875 11.8364C6.08649 11.7402 5.83566 11.6972 5.58462 11.7105C5.33359 11.7238 5.0887 11.793 4.86791 11.9132L4.60516 12.0572C3.91766 12.4307 3.16538 11.6793 3.53972 10.9909L3.6828 10.729C3.80334 10.5082 3.8729 10.2631 3.88637 10.0119C3.89985 9.76062 3.8569 9.50954 3.76068 9.27705C3.66446 9.04457 3.5174 8.83658 3.33031 8.66834C3.14321 8.5001 2.92083 8.37589 2.67946 8.30481L2.39241 8.22022C1.64103 7.99886 1.64103 6.93523 2.39241 6.71386L2.67946 6.62928C2.92045 6.55811 3.14247 6.43395 3.32929 6.2659C3.5161 6.09785 3.66297 5.89016 3.75916 5.65802C3.85534 5.42588 3.89841 5.17517 3.88519 4.92424C3.87198 4.67331 3.80283 4.42851 3.6828 4.20776L3.53882 3.945C3.16538 3.25751 3.91676 2.50523 4.60516 2.87957L4.86791 3.02265C5.0887 3.14284 5.33359 3.21213 5.58462 3.22543C5.83566 3.23873 6.08649 3.19571 6.31875 3.09951C6.551 3.00331 6.75879 2.85638 6.92691 2.66947C7.09502 2.48256 7.21919 2.26042 7.29033 2.0193L7.37492 1.73225Z" fill="#FECB89"/>
</g>
</svg>
