<svg width="29" height="28" viewBox="0 0 29 28" fill="none" xmlns="http://www.w3.org/2000/svg">
<path d="M28.5275 11.2581H27.3998V11.2H14.7998V16.8H22.7119C21.5576 20.0599 18.4559 22.4 14.7998 22.4C10.1609 22.4 6.3998 18.6389 6.3998 14C6.3998 9.3611 10.1609 5.6 14.7998 5.6C16.9411 5.6 18.8892 6.4078 20.3725 7.7273L24.3324 3.7674C21.832 1.4371 18.4874 0 14.7998 0C7.0683 0 0.799805 6.2685 0.799805 14C0.799805 21.7315 7.0683 28 14.7998 28C22.5313 28 28.7998 21.7315 28.7998 14C28.7998 13.0613 28.7032 12.145 28.5275 11.2581Z" fill="#FFC107"/>
<path d="M2.414 7.4837L7.0137 10.857C8.2583 7.7756 11.2725 5.6 14.7998 5.6C16.9411 5.6 18.8892 6.4078 20.3725 7.7273L24.3324 3.7674C21.832 1.4371 18.4874 0 14.7998 0C9.4224 0 4.759 3.0359 2.414 7.4837Z" fill="#FF3D00"/>
<path d="M14.7998 28C18.416 28 21.7018 26.6161 24.1861 24.3656L19.8531 20.699C18.4003 21.8039 16.625 22.4014 14.7998 22.4C11.1584 22.4 8.0665 20.0781 6.9017 16.8378L2.3363 20.3553C4.6533 24.8892 9.3587 28 14.7998 28Z" fill="#4CAF50"/>
<path d="M28.5275 11.2581H27.3998V11.2H14.7998V16.8H22.7119C22.1597 18.3515 21.1652 19.7072 19.851 20.6997L19.8531 20.699L24.1861 24.3656C23.8795 24.6442 28.7998 21 28.7998 14C28.7998 13.0613 28.7032 12.145 28.5275 11.2581Z" fill="#1976D2"/>
</svg>
