<svg width="30" height="30" viewBox="0 0 30 30" fill="none" xmlns="http://www.w3.org/2000/svg">
<g id="vuesax/linear/map">
<g id="vuesax/linear/map_2">
<g id="map">
<path id="Vector" d="M27.5 11.2504V18.7504C27.5 21.8754 26.875 24.0629 25.475 25.4754L17.5 17.5004L27.1625 7.83789C27.3875 8.82539 27.5 9.95039 27.5 11.2504Z" stroke="#BB14CA" stroke-width="1.875" stroke-linecap="round" stroke-linejoin="round"/>
<path id="Vector_2" d="M27.1625 7.83751L7.83749 27.1625C4.07499 26.3 2.5 23.7 2.5 18.75V11.25C2.5 5 5 2.5 11.25 2.5H18.75C23.7 2.5 26.3 4.07501 27.1625 7.83751Z" stroke="#BB14CA" stroke-width="1.875" stroke-linecap="round" stroke-linejoin="round"/>
<path id="Vector_3" d="M25.4749 25.475C24.0624 26.875 21.8749 27.5 18.7499 27.5H11.2499C9.94992 27.5 8.8249 27.3875 7.8374 27.1625L17.4999 17.5L25.4749 25.475Z" stroke="#BB14CA" stroke-width="1.875" stroke-linecap="round" stroke-linejoin="round"/>
<path id="Vector_4" d="M7.7996 9.97539C8.6496 6.31289 14.1496 6.31289 14.9996 9.97539C15.4871 12.1254 14.1371 13.9504 12.9496 15.0754C12.0871 15.9004 10.7246 15.9004 9.84961 15.0754C8.66211 13.9504 7.2996 12.1254 7.7996 9.97539Z" stroke="#BB14CA" stroke-width="1.875"/>
<path id="Vector_5" d="M11.3681 10.875H11.3794" stroke="#BB14CA" stroke-width="2.5" stroke-linecap="round" stroke-linejoin="round"/>
</g>
</g>
</g>
</svg>
